<?xml version="1.0" encoding="UTF-8"?>
<!-- Created with EazyDraw for Mac ( http://www.eazydraw.com/ ) -->

<svg
    version="1.1"
    xmlns:dc="http://purl.org/dc/elements/1.1/"
    xmlns:cc="http://creativecommons.org/ns#"
    xmlns:rdf="http://www.w3.org/1999/02/22-rdf-syntax-ns#"
    xmlns:svg="http://www.w3.org/2000/svg"
    xmlns:xlink="http://www.w3.org/1999/xlink"
    xmlns="http://www.w3.org/2000/svg"
    width="1250"
    height="1250"
    viewBox="0, 0, 1000, 1000"
    preserveAspectRatio="none"
    id="svg2">
   <defs
       id="defs_EF94AA07"/>
   <metadata
       id="metadata7">
      <rdf:RDF>
         <cc:Work
             rdf:about="">
            <dc:format>image/svg+xml</dc:format>
            <dc:type rdf:resource="http://purl.org/dc/dcmitype/StillImage"/>
            <dc:title></dc:title>
         </cc:Work>
      </rdf:RDF>
   </metadata>
   <g
       id="layer_Paper"
       style="fill:#000000;fill-opacity:1;stroke:#000000;stroke-opacity:1;fill-rule:nonzero;stroke-linecap:square;stroke-linejoin:miter;stroke-width:1;stroke-miterlimit:10">
      <circle
          style="stroke:none"
          id="77169FC4"
          cx="500"
          cy="500"
          r="500"/>
      <path
          style="fill:#FFD7BF;stroke:#202020"
          id="33E987F4"
          d="M500,500 C648.153251089,523.465169756 796.306502179,546.930339512 944.459753268,570.395509268 C951.846748911,523.755854339 951.846748911,476.244145661 944.459753268,429.604490732 C796.306502179,453.069660488 648.153251089,476.534830244 500,500
z"/>
      <path
          style="fill:#FFD7BF;stroke:#202020"
          id="46046555"
          d="M500,500 C633.650978628,431.901425039 767.301957256,363.802850078 900.952935885,295.704275117 C879.515039558,253.63003457 851.588357886,215.192254818 818.198051534,181.801948466 C712.132034356,287.867965644 606.066017178,393.933982822 500,500
z"/>
      <path
          style="fill:#FFD7BF;stroke:#202020"
          id="CA8C3F55"
          d="M500,500 C568.098574961,366.349021372 636.197149922,232.698042743 704.295724883,99.0470641152 C662.221484335,77.6091677882 617.035164197,62.9272423751 570.395509268,55.5402467322 C546.930339512,203.693497821 523.465169756,351.846748911 500,500
z"/>
      <path
          style="fill:#FFD7BF;stroke:#202020"
          id="6E1C0065"
          d="M500,500 C476.534830244,351.846748911 453.069660488,203.693497821 429.604490732,55.5402467322 C382.964835802,62.9272423751 337.778515664,77.6091677883 295.704275117,99.0470641153 C363.802850078,232.698042744 431.901425039,366.349021372 500,500
z"/>
      <path
          style="fill:#FFD7BF;stroke:#202020"
          id="9A309165"
          d="M500,500 C393.933982822,393.933982822 287.867965644,287.867965644 181.801948466,181.801948466 C148.411642114,215.192254818 120.484960442,253.63003457 99.0470641152,295.704275117 C232.698042743,363.802850078 366.349021372,431.901425039 500,500
z"/>
      <path
          style="fill:#FFD7BF;stroke:#202020"
          id="39603265"
          d="M500,500 C351.846748911,476.534830244 203.693497821,453.069660488 55.5402467322,429.604490732 C48.1532510893,476.244145661 48.1532510893,523.755854339 55.5402467322,570.395509268 C203.693497821,546.930339512 351.846748911,523.465169756 500,500
z"/>
      <path
          style="fill:#FFD7BF;stroke:#202020"
          id="7CBC9265"
          d="M500,500 C366.349021372,568.098574961 232.698042744,636.197149922 99.0470641153,704.295724883 C120.484960442,746.36996543 148.411642114,784.807745182 181.801948466,818.198051534 C287.867965644,712.132034356 393.933982822,606.066017178 500,500
z"/>
      <path
          style="fill:#FFD7BF;stroke:#202020"
          id="D6B12365"
          d="M500,500 C431.901425039,633.650978628 363.802850078,767.301957257 295.704275117,900.952935885 C337.778515665,922.390832212 382.964835803,937.072757625 429.604490732,944.459753268 C453.069660488,796.306502179 476.534830244,648.153251089 500,500
z"/>
      <path
          style="fill:#FFD7BF;stroke:#202020"
          id="10069365"
          d="M500,500 C523.465169756,648.153251089 546.930339512,796.306502179 570.395509268,944.459753268 C617.035164198,937.072757625 662.221484336,922.390832212 704.295724883,900.952935885 C636.197149922,767.301957256 568.098574961,633.650978628 500,500
z"/>
      <path
          style="fill:#FFD7BF;stroke:#202020"
          id="DB914465"
          d="M500,500 C606.066017178,606.066017178 712.132034356,712.132034356 818.198051534,818.198051534 C851.588357886,784.807745182 879.515039558,746.36996543 900.952935885,704.295724883 C767.301957257,636.197149922 633.650978628,568.098574961 500,500
z"/>
      <circle
          style="fill:none;stroke:#892A2A;stroke-width:40"
          id="1C2FE875"
          cx="500"
          cy="500"
          r="430"/>
      <path
          style="fill:none;stroke:#008E31;stroke-linecap:butt;stroke-width:40"
          id="3A9CCE65"
          d="M924.705986456,432.733180033 C931.764671181,477.29996141 931.764671181,522.70003859 924.705986456,567.266819967"/>
      <path
          style="fill:none;stroke:#008E31;stroke-linecap:butt;stroke-width:40"
          id="62E6FE75"
          d="M883.132805401,304.784085112 C862.647704466,264.579810811 835.962208647,227.850376826 804.05591591,195.94408409"/>
      <path
          style="fill:none;stroke:#008E31;stroke-linecap:butt;stroke-width:40"
          id="B3A9DF75"
          d="M695.215914888,116.867194599 C655.011640587,96.3820936643 611.833601344,82.3526982695 567.266819967,75.2940135441"/>
      <path
          style="fill:none;stroke:#008E31;stroke-linecap:butt;stroke-width:40"
          id="82684185"
          d="M432.733180033,75.2940135441 C388.166398656,82.3526982696 344.988359413,96.3820936643 304.784085112,116.867194599"/>
      <path
          style="fill:none;stroke:#008E31;stroke-linecap:butt;stroke-width:40"
          id="D4D5E185"
          d="M195.94408409,195.94408409 C164.037791353,227.850376826 137.352295534,264.579810811 116.867194599,304.784085112"/>
      <path
          style="fill:none;stroke:#008E31;stroke-linecap:butt;stroke-width:40"
          id="D082C285"
          d="M75.2940135441,432.733180033 C68.2353288186,477.29996141 68.2353288186,522.70003859 75.2940135441,567.266819967"/>
      <path
          style="fill:none;stroke:#008E31;stroke-linecap:butt;stroke-width:40"
          id="F6394385"
          d="M116.867194599,695.215914888 C137.352295534,735.420189189 164.037791354,772.149623174 195.94408409,804.05591591"/>
      <path
          style="fill:none;stroke:#008E31;stroke-linecap:butt;stroke-width:40"
          id="79C66485"
          d="M304.784085112,883.132805401 C344.988359413,903.617906336 388.166398656,917.64730173 432.733180033,924.705986456"/>
      <path
          style="fill:none;stroke:#008E31;stroke-linecap:butt;stroke-width:40"
          id="20F67585"
          d="M567.266819967,924.705986456 C611.833601344,917.64730173 655.011640587,903.617906336 695.215914888,883.132805401"/>
      <path
          style="fill:none;stroke:#008E31;stroke-linecap:butt;stroke-width:40"
          id="BF232685"
          d="M804.05591591,804.05591591 C835.962208647,772.149623174 862.647704466,735.420189189 883.132805401,695.215914888"/>
      <circle
          style="fill:none;stroke:#892A2A;stroke-linecap:butt;stroke-width:40"
          id="4E5D9B85"
          cx="500"
          cy="500"
          r="250"/>
      <path
          style="fill:none;stroke:#008E31;stroke-linecap:butt;stroke-width:40"
          id="5E5D9B85"
          d="M746.922085149,460.89138374 C751.025971617,486.802303145 751.025971617,513.197696855 746.922085149,539.10861626"/>
      <path
          style="fill:none;stroke:#008E31;stroke-linecap:butt;stroke-width:40"
          id="6E5D9B85"
          d="M722.751631047,386.502375065 C710.841688643,363.127796983 695.326865492,341.773474899 676.776695297,323.223304703"/>
      <path
          style="fill:none;stroke:#008E31;stroke-linecap:butt;stroke-width:40"
          id="7E5D9B85"
          d="M613.497624935,277.248368953 C590.123046853,265.338426549 565.019535665,257.181801319 539.10861626,253.077914851"/>
      <path
          style="fill:none;stroke:#008E31;stroke-linecap:butt;stroke-width:40"
          id="8E5D9B85"
          d="M460.89138374,253.077914851 C434.980464335,257.18180132 409.876953147,265.338426549 386.502375065,277.248368953"/>
      <path
          style="fill:none;stroke:#008E31;stroke-linecap:butt;stroke-width:40"
          id="AE5D9B85"
          d="M323.223304703,323.223304703 C304.673134508,341.773474899 289.158311357,363.127796983 277.248368953,386.502375065"/>
      <path
          style="fill:none;stroke:#008E31;stroke-linecap:butt;stroke-width:40"
          id="BE5D9B85"
          d="M253.077914851,460.89138374 C248.974028383,486.802303145 248.974028383,513.197696855 253.077914851,539.10861626"/>
      <path
          style="fill:none;stroke:#008E31;stroke-linecap:butt;stroke-width:40"
          id="CE5D9B85"
          d="M277.248368953,613.497624935 C289.158311357,636.872203017 304.673134508,658.226525101 323.223304703,676.776695297"/>
      <path
          style="fill:none;stroke:#008E31;stroke-linecap:butt;stroke-width:40"
          id="DE5D9B85"
          d="M386.502375065,722.751631047 C409.876953147,734.661573451 434.980464335,742.818198681 460.89138374,746.922085149"/>
      <path
          style="fill:none;stroke:#008E31;stroke-linecap:butt;stroke-width:40"
          id="EE5D9B85"
          d="M539.10861626,746.922085149 C565.019535665,742.81819868 590.123046853,734.661573451 613.497624935,722.751631047"/>
      <path
          style="fill:none;stroke:#008E31;stroke-linecap:butt;stroke-width:40"
          id="FE5D9B85"
          d="M676.776695297,676.776695297 C695.326865492,658.226525101 710.841688643,636.872203017 722.751631047,613.497624935"/>
      <g
          id="457E7C95">
         <path
             style="fill:none;stroke:#202020"
             id="29C02B95"
             d="M500,500 C648.153251089,523.465169756 796.306502179,546.930339512 944.459753268,570.395509268 C951.846748911,523.755854339 951.846748911,476.244145661 944.459753268,429.604490732 C796.306502179,453.069660488 648.153251089,476.534830244 500,500
z"/>
         <path
             style="fill:none;stroke:#202020"
             id="39C02B95"
             d="M500,500 C633.650978628,431.901425039 767.301957256,363.802850078 900.952935885,295.704275117 C879.515039558,253.63003457 851.588357886,215.192254818 818.198051534,181.801948466 C712.132034356,287.867965644 606.066017178,393.933982822 500,500
z"/>
         <path
             style="fill:none;stroke:#202020"
             id="49C02B95"
             d="M500,500 C568.098574961,366.349021372 636.197149922,232.698042743 704.295724883,99.0470641152 C662.221484335,77.6091677882 617.035164197,62.9272423751 570.395509268,55.5402467322 C546.930339512,203.693497821 523.465169756,351.846748911 500,500
z"/>
         <path
             style="fill:none;stroke:#202020"
             id="59C02B95"
             d="M500,500 C476.534830244,351.846748911 453.069660488,203.693497821 429.604490732,55.5402467322 C382.964835802,62.9272423751 337.778515664,77.6091677883 295.704275117,99.0470641153 C363.802850078,232.698042744 431.901425039,366.349021372 500,500
z"/>
         <path
             style="fill:none;stroke:#202020"
             id="69C02B95"
             d="M500,500 C393.933982822,393.933982822 287.867965644,287.867965644 181.801948466,181.801948466 C148.411642114,215.192254818 120.484960442,253.63003457 99.0470641152,295.704275117 C232.698042743,363.802850078 366.349021372,431.901425039 500,500
z"/>
         <path
             style="fill:none;stroke:#202020"
             id="79C02B95"
             d="M500,500 C351.846748911,476.534830244 203.693497821,453.069660488 55.5402467322,429.604490732 C48.1532510893,476.244145661 48.1532510893,523.755854339 55.5402467322,570.395509268 C203.693497821,546.930339512 351.846748911,523.465169756 500,500
z"/>
         <path
             style="fill:none;stroke:#202020"
             id="89C02B95"
             d="M500,500 C366.349021372,568.098574961 232.698042744,636.197149922 99.0470641153,704.295724883 C120.484960442,746.36996543 148.411642114,784.807745182 181.801948466,818.198051534 C287.867965644,712.132034356 393.933982822,606.066017178 500,500
z"/>
         <path
             style="fill:none;stroke:#202020"
             id="99C02B95"
             d="M500,500 C431.901425039,633.650978628 363.802850078,767.301957257 295.704275117,900.952935885 C337.778515665,922.390832212 382.964835803,937.072757625 429.604490732,944.459753268 C453.069660488,796.306502179 476.534830244,648.153251089 500,500
z"/>
         <path
             style="fill:none;stroke:#202020"
             id="A9C02B95"
             d="M500,500 C523.465169756,648.153251089 546.930339512,796.306502179 570.395509268,944.459753268 C617.035164198,937.072757625 662.221484336,922.390832212 704.295724883,900.952935885 C636.197149922,767.301957256 568.098574961,633.650978628 500,500
z"/>
         <path
             style="fill:none;stroke:#202020"
             id="B9C02B95"
             d="M500,500 C606.066017178,606.066017178 712.132034356,712.132034356 818.198051534,818.198051534 C851.588357886,784.807745182 879.515039558,746.36996543 900.952935885,704.295724883 C767.301957257,636.197149922 633.650978628,568.098574961 500,500
z"/>
      </g>
      <circle
          style="fill:#008021"
          id="BF24C765"
          cx="500"
          cy="500"
          r="60"/>
      <circle
          style="fill:#9B3B38"
          id="22985995"
          cx="500"
          cy="500"
          r="30"/>
      <ellipse
          style="fill:none"
          id="A03C49A5"
          cx="500"
          cy="500"
          rx="410"
          ry="410"/>
      <ellipse
          style="fill:none"
          id="C4036CA5"
          cx="500"
          cy="500"
          rx="270"
          ry="270"/>
      <ellipse
          style="fill:none"
          id="EF101EA5"
          cx="500"
          cy="500"
          rx="230"
          ry="230"/>
      <text
          id="8E7014B5"
          style="fill:#FFFFFF;stroke:none"
          font-family="Helvetica"
          font-size="48"
          font-weight="normal"
          font-style="normal"
          transform="matrix(1,-0,0,1,-0.000000000001,0)">
         <tspan x="477.3046875" y="33">20</tspan>
      </text>
      <text
          id="B83102D5"
          style="fill:#FFFFFF;stroke:none"
          font-family="Helvetica"
          font-size="48"
          font-weight="normal"
          font-style="normal"
          transform="matrix(1,-0,0,1,-0.000000000002,0)">
         <tspan x="485.65234375" y="994">3</tspan>
      </text>
      <text
          id="49BF92D5"
          style="fill:#FFFFFF;stroke:none"
          font-family="Helvetica"
          font-size="48"
          font-weight="normal"
          font-style="normal"
          transform="matrix(1,-0,0,1,-0.000000000002,0)">
         <tspan x="622.5078125" y="972">17</tspan>
      </text>
      <text
          id="DDBC13D5"
          style="fill:#FFFFFF;stroke:none"
          font-family="Helvetica"
          font-size="48"
          font-weight="normal"
          font-style="normal"
          transform="matrix(1,-0,0,1,-0.000000000002,0)">
         <tspan x="768.65234375" y="903">2</tspan>
      </text>
      <text
          id="76D093D5"
          style="fill:#FFFFFF;stroke:none"
          font-family="Helvetica"
          font-size="48"
          font-weight="normal"
          font-style="normal"
          transform="matrix(1,-0,0,1,-0.000000000003,0)">
         <tspan x="856.3046875" y="796">15</tspan>
      </text>
      <text
          id="5A8CE3D5"
          style="fill:#FFFFFF;stroke:none"
          font-family="Helvetica"
          font-size="48"
          font-weight="normal"
          font-style="normal"
          transform="matrix(1,-0,0,1,-0.000000000003,0)">
         <tspan x="924.3046875" y="667">10</tspan>
      </text>
      <text
          id="DDCB05D5"
          style="fill:#FFFFFF;stroke:none"
          font-family="Helvetica"
          font-size="48"
          font-weight="normal"
          font-style="normal"
          transform="matrix(1,-0,0,1,-0.000000000003,0)">
         <tspan x="966.65234375" y="527">6</tspan>
      </text>
      <text
          id="F0F8F5D5"
          style="fill:#FFFFFF;stroke:none"
          font-family="Helvetica"
          font-size="48"
          font-weight="normal"
          font-style="normal"
          transform="matrix(1,-0,0,1,-0.000000000003,0)">
         <tspan x="923.3046875" y="365">13</tspan>
      </text>
      <text
          id="EF2C66D5"
          style="fill:#FFFFFF;stroke:none"
          font-family="Helvetica"
          font-size="48"
          font-weight="normal"
          font-style="normal"
          transform="matrix(1,-0,0,1,-0.000000000002,0)">
         <tspan x="879.2265625" y="228.80859375">4</tspan>
      </text>
      <text
          id="459BE6D5"
          style="fill:#FFFFFF;stroke:none"
          font-family="Helvetica"
          font-size="48"
          font-weight="normal"
          font-style="normal"
          transform="matrix(1,-0,0,1,-0.000000000002,0)">
         <tspan x="753.87890625" y="130.80859375">18</tspan>
      </text>
      <text
          id="F1CF47D5"
          style="fill:#FFFFFF;stroke:none"
          font-family="Helvetica"
          font-size="48"
          font-weight="normal"
          font-style="normal"
          transform="matrix(1,-0,0,1,-0.000000000002,0)">
         <tspan x="636.2265625" y="59.80859375">1</tspan>
      </text>
      <text
          id="498388D5"
          style="fill:#FFFFFF;stroke:none"
          font-family="Helvetica"
          font-size="48"
          font-weight="normal"
          font-style="normal"
          transform="matrix(1,-0,0,1,-0.000000000001,0)">
         <tspan x="334.2265625" y="59.80859375">5</tspan>
      </text>
      <text
          id="F0A69ED5"
          style="fill:#FFFFFF;stroke:none"
          font-family="Helvetica"
          font-size="48"
          font-weight="normal"
          font-style="normal"
          transform="matrix(1,-0,0,1,-0.000000000001,0)">
         <tspan x="189.87890625" y="130.80859375">12</tspan>
      </text>
      <text
          id="B87AFED5"
          style="fill:#FFFFFF;stroke:none"
          font-family="Helvetica"
          font-size="48"
          font-weight="normal"
          font-style="normal"
          transform="matrix(1,-0,0,1,-0,0)">
         <tspan x="91.2265625" y="236.80859375">9</tspan>
      </text>
      <text
          id="2449BFD5"
          style="fill:#FFFFFF;stroke:none"
          font-family="Helvetica"
          font-size="48"
          font-weight="normal"
          font-style="normal"
          transform="matrix(1,-0,0,1,-0,-0)">
         <tspan x="18.87890625" y="368.80859375">14</tspan>
      </text>
      <text
          id="5E0020E5"
          style="fill:#FFFFFF;stroke:none"
          font-family="Helvetica"
          font-size="48"
          font-weight="normal"
          font-style="normal"
          transform="matrix(1,-0,0,1,-0,-0)">
         <tspan x="-0.3515625" y="515.80859375">11</tspan>
      </text>
      <text
          id="200670E5"
          style="fill:#FFFFFF;stroke:none"
          font-family="Helvetica"
          font-size="48"
          font-weight="normal"
          font-style="normal"
          transform="matrix(1,-0,0,1,-0,-0)">
         <tspan x="27.2265625" y="669.80859375">8</tspan>
      </text>
      <text
          id="B046D0E5"
          style="fill:#FFFFFF;stroke:none"
          font-family="Helvetica"
          font-size="48"
          font-weight="normal"
          font-style="normal"
          transform="matrix(1,-0,0,1,-0,0)">
         <tspan x="84.87890625" y="796.80859375">16</tspan>
      </text>
      <text
          id="0A5D31E5"
          style="fill:#FFFFFF;stroke:none"
          font-family="Helvetica"
          font-size="48"
          font-weight="normal"
          font-style="normal"
          transform="matrix(1,-0,0,1,-0.000000000001,0)">
         <tspan x="198.2265625" y="904.80859375">7</tspan>
      </text>
      <text
          id="2E3E91E5"
          style="fill:#FFFFFF;stroke:none"
          font-family="Helvetica"
          font-size="48"
          font-weight="normal"
          font-style="normal"
          transform="matrix(1,-0,0,1,-0.000000000001,0)">
         <tspan x="322.87890625" y="971.80859375">19</tspan>
      </text>
   </g>
</svg>
